<mxfile host="65bd71144e">
    <diagram id="ty-j11SNUyzXiX_ZrGOT" name="Seite-1">
        <mxGraphModel dx="990" dy="613" grid="1" gridSize="10" guides="1" tooltips="1" connect="1" arrows="1" fold="1" page="1" pageScale="1" pageWidth="827" pageHeight="1169" math="0" shadow="0">
            <root>
                <mxCell id="0"/>
                <mxCell id="1" parent="0"/>
                <mxCell id="2" value="&lt;h1&gt;&lt;span&gt;Marko'sBooks&lt;/span&gt;&lt;/h1&gt;&lt;h1&gt;&lt;span style=&quot;font-size: 12px ; font-weight: normal&quot;&gt;Requirements:&lt;/span&gt;&lt;br&gt;&lt;/h1&gt;&lt;div&gt;&lt;span style=&quot;font-size: 12px ; font-weight: normal&quot;&gt;- As Book owner I want to document every book as detailed as follows:&lt;/span&gt;&lt;/div&gt;&lt;blockquote style=&quot;margin: 0 0 0 40px ; border: none ; padding: 0px&quot;&gt;&lt;div&gt;&lt;span style=&quot;font-size: 12px ; font-weight: normal&quot;&gt;- ISBN&lt;/span&gt;&lt;/div&gt;&lt;div&gt;&lt;span style=&quot;font-size: 12px ; font-weight: normal&quot;&gt;- BookName&lt;/span&gt;&lt;/div&gt;&lt;div&gt;&lt;span style=&quot;font-size: 12px ; font-weight: normal&quot;&gt;- BookAuthor&lt;/span&gt;&lt;/div&gt;&lt;div&gt;&lt;span style=&quot;font-size: 12px ; font-weight: normal&quot;&gt;- BookTitle&lt;/span&gt;&lt;/div&gt;&lt;div&gt;&lt;span style=&quot;font-size: 12px ; font-weight: normal&quot;&gt;- Genre&lt;/span&gt;&lt;/div&gt;&lt;div&gt;&lt;span style=&quot;font-size: 12px ; font-weight: normal&quot;&gt;- Language(s)&lt;/span&gt;&lt;/div&gt;&lt;div&gt;&lt;span style=&quot;font-size: 12px ; font-weight: normal&quot;&gt;- Description&lt;/span&gt;&lt;/div&gt;&lt;div&gt;&lt;span style=&quot;font-size: 12px ; font-weight: normal&quot;&gt;- AquisitionDate&lt;/span&gt;&lt;/div&gt;&lt;div&gt;&lt;span&gt;- ReadBy&lt;/span&gt;&lt;/div&gt;&lt;div&gt;&lt;span&gt;&lt;br&gt;&lt;/span&gt;&lt;/div&gt;&lt;div&gt;- Location&lt;/div&gt;&lt;div&gt;&lt;br&gt;&lt;/div&gt;&lt;div&gt;&lt;span style=&quot;font-size: 12px ; font-weight: normal&quot;&gt;- LentTo&lt;/span&gt;&lt;/div&gt;&lt;div&gt;&lt;span style=&quot;font-size: 12px ; font-weight: normal&quot;&gt;- LentToDate&lt;/span&gt;&lt;/div&gt;&lt;div&gt;&lt;span style=&quot;font-size: 12px ; font-weight: normal&quot;&gt;- LentReturnDate&lt;/span&gt;&lt;/div&gt;&lt;div&gt;&lt;span style=&quot;font-size: 12px ; font-weight: normal&quot;&gt;&lt;br&gt;&lt;/span&gt;&lt;/div&gt;&lt;div&gt;&lt;span style=&quot;font-size: 12px ; font-weight: normal&quot;&gt;- LentFrom&lt;/span&gt;&lt;/div&gt;&lt;div&gt;&lt;span style=&quot;font-size: 12px ; font-weight: normal&quot;&gt;- LentFromDate&lt;/span&gt;&lt;/div&gt;&lt;div&gt;&lt;span style=&quot;font-size: 12px ; font-weight: normal&quot;&gt;- LentFromReturnDate&lt;span style=&quot;white-space: pre&quot;&gt;&#9;&lt;/span&gt;&lt;/span&gt;&lt;/div&gt;&lt;/blockquote&gt;" style="text;html=1;strokeColor=none;fillColor=none;spacing=5;spacingTop=-20;whiteSpace=wrap;overflow=hidden;rounded=0;" vertex="1" parent="1">
                    <mxGeometry x="80" y="80" width="680" height="390" as="geometry"/>
                </mxCell>
                <mxCell id="4" value="Book" style="rounded=1;whiteSpace=wrap;html=1;" vertex="1" parent="1">
                    <mxGeometry x="120" y="540" width="120" height="60" as="geometry"/>
                </mxCell>
                <mxCell id="5" value="Location" style="rounded=1;whiteSpace=wrap;html=1;" vertex="1" parent="1">
                    <mxGeometry x="280" y="620" width="120" height="60" as="geometry"/>
                </mxCell>
                <mxCell id="6" value="Friend" style="rounded=1;whiteSpace=wrap;html=1;" vertex="1" parent="1">
                    <mxGeometry x="280" y="540" width="120" height="60" as="geometry"/>
                </mxCell>
                <mxCell id="8" value="Mandatory" style="text;html=1;strokeColor=none;fillColor=none;align=center;verticalAlign=middle;whiteSpace=wrap;rounded=0;" vertex="1" parent="1">
                    <mxGeometry x="150" y="490" width="60" height="30" as="geometry"/>
                </mxCell>
                <mxCell id="9" value="Optional" style="text;html=1;strokeColor=none;fillColor=none;align=center;verticalAlign=middle;whiteSpace=wrap;rounded=0;" vertex="1" parent="1">
                    <mxGeometry x="310" y="490" width="60" height="30" as="geometry"/>
                </mxCell>
            </root>
        </mxGraphModel>
    </diagram>
    <diagram id="oNvDsNfrbtNVluwsDLh0" name="Seite-2">
        <mxGraphModel dx="990" dy="613" grid="1" gridSize="10" guides="1" tooltips="1" connect="1" arrows="1" fold="1" page="1" pageScale="1" pageWidth="827" pageHeight="1169" math="0" shadow="0">
            <root>
                <mxCell id="iHFkmIcoVa74H1bjZnRg-0"/>
                <mxCell id="iHFkmIcoVa74H1bjZnRg-1" parent="iHFkmIcoVa74H1bjZnRg-0"/>
                <mxCell id="1FX5QB80y64IhLEsS3gf-0" style="edgeStyle=none;html=1;entryX=1;entryY=0.5;entryDx=0;entryDy=0;" edge="1" parent="iHFkmIcoVa74H1bjZnRg-1" source="9v7TePNITTxTFpgdxDVr-0" target="blN-bUHN55MVng5lJSkp-1">
                    <mxGeometry relative="1" as="geometry"/>
                </mxCell>
                <mxCell id="1FX5QB80y64IhLEsS3gf-1" style="edgeStyle=none;html=1;entryX=1;entryY=1;entryDx=0;entryDy=0;" edge="1" parent="iHFkmIcoVa74H1bjZnRg-1" source="9v7TePNITTxTFpgdxDVr-0" target="blN-bUHN55MVng5lJSkp-2">
                    <mxGeometry relative="1" as="geometry"/>
                </mxCell>
                <mxCell id="1FX5QB80y64IhLEsS3gf-2" style="edgeStyle=none;html=1;entryX=0.5;entryY=1;entryDx=0;entryDy=0;" edge="1" parent="iHFkmIcoVa74H1bjZnRg-1" source="9v7TePNITTxTFpgdxDVr-0" target="blN-bUHN55MVng5lJSkp-3">
                    <mxGeometry relative="1" as="geometry"/>
                </mxCell>
                <mxCell id="1FX5QB80y64IhLEsS3gf-3" style="edgeStyle=none;html=1;exitX=0.623;exitY=0.003;exitDx=0;exitDy=0;entryX=0;entryY=1;entryDx=0;entryDy=0;exitPerimeter=0;" edge="1" parent="iHFkmIcoVa74H1bjZnRg-1" source="9v7TePNITTxTFpgdxDVr-0" target="blN-bUHN55MVng5lJSkp-4">
                    <mxGeometry relative="1" as="geometry"/>
                </mxCell>
                <mxCell id="1FX5QB80y64IhLEsS3gf-4" style="edgeStyle=none;html=1;entryX=0;entryY=1;entryDx=0;entryDy=0;" edge="1" parent="iHFkmIcoVa74H1bjZnRg-1" source="9v7TePNITTxTFpgdxDVr-0" target="blN-bUHN55MVng5lJSkp-5">
                    <mxGeometry relative="1" as="geometry"/>
                </mxCell>
                <mxCell id="1FX5QB80y64IhLEsS3gf-5" style="edgeStyle=none;html=1;entryX=1;entryY=1;entryDx=0;entryDy=0;" edge="1" parent="iHFkmIcoVa74H1bjZnRg-1" source="9v7TePNITTxTFpgdxDVr-0" target="blN-bUHN55MVng5lJSkp-6">
                    <mxGeometry relative="1" as="geometry"/>
                </mxCell>
                <mxCell id="1FX5QB80y64IhLEsS3gf-6" style="edgeStyle=none;html=1;entryX=1;entryY=0.5;entryDx=0;entryDy=0;" edge="1" parent="iHFkmIcoVa74H1bjZnRg-1" source="9v7TePNITTxTFpgdxDVr-0" target="blN-bUHN55MVng5lJSkp-9">
                    <mxGeometry relative="1" as="geometry"/>
                </mxCell>
                <mxCell id="1FX5QB80y64IhLEsS3gf-7" style="edgeStyle=none;html=1;entryX=1;entryY=0;entryDx=0;entryDy=0;" edge="1" parent="iHFkmIcoVa74H1bjZnRg-1" source="9v7TePNITTxTFpgdxDVr-0" target="blN-bUHN55MVng5lJSkp-10">
                    <mxGeometry relative="1" as="geometry"/>
                </mxCell>
                <mxCell id="1FX5QB80y64IhLEsS3gf-8" style="edgeStyle=none;html=1;entryX=1;entryY=0;entryDx=0;entryDy=0;" edge="1" parent="iHFkmIcoVa74H1bjZnRg-1" source="9v7TePNITTxTFpgdxDVr-0" target="blN-bUHN55MVng5lJSkp-11">
                    <mxGeometry relative="1" as="geometry"/>
                </mxCell>
                <mxCell id="1FX5QB80y64IhLEsS3gf-9" style="edgeStyle=none;html=1;entryX=1;entryY=0;entryDx=0;entryDy=0;" edge="1" parent="iHFkmIcoVa74H1bjZnRg-1" source="9v7TePNITTxTFpgdxDVr-0" target="blN-bUHN55MVng5lJSkp-12">
                    <mxGeometry relative="1" as="geometry"/>
                </mxCell>
                <mxCell id="1FX5QB80y64IhLEsS3gf-10" style="edgeStyle=none;html=1;entryX=0;entryY=0;entryDx=0;entryDy=0;" edge="1" parent="iHFkmIcoVa74H1bjZnRg-1" source="9v7TePNITTxTFpgdxDVr-0" target="blN-bUHN55MVng5lJSkp-13">
                    <mxGeometry relative="1" as="geometry"/>
                </mxCell>
                <mxCell id="1FX5QB80y64IhLEsS3gf-11" style="edgeStyle=none;html=1;entryX=0;entryY=0;entryDx=0;entryDy=0;" edge="1" parent="iHFkmIcoVa74H1bjZnRg-1" source="9v7TePNITTxTFpgdxDVr-0" target="blN-bUHN55MVng5lJSkp-15">
                    <mxGeometry relative="1" as="geometry"/>
                </mxCell>
                <mxCell id="1FX5QB80y64IhLEsS3gf-12" style="edgeStyle=none;html=1;entryX=0;entryY=0;entryDx=0;entryDy=0;" edge="1" parent="iHFkmIcoVa74H1bjZnRg-1" source="9v7TePNITTxTFpgdxDVr-0" target="blN-bUHN55MVng5lJSkp-14">
                    <mxGeometry relative="1" as="geometry"/>
                </mxCell>
                <mxCell id="1FX5QB80y64IhLEsS3gf-13" style="edgeStyle=none;html=1;entryX=0.5;entryY=1;entryDx=0;entryDy=0;" edge="1" parent="iHFkmIcoVa74H1bjZnRg-1" source="9v7TePNITTxTFpgdxDVr-0" target="blN-bUHN55MVng5lJSkp-7">
                    <mxGeometry relative="1" as="geometry"/>
                </mxCell>
                <mxCell id="1FX5QB80y64IhLEsS3gf-14" style="edgeStyle=none;html=1;entryX=0;entryY=1;entryDx=0;entryDy=0;" edge="1" parent="iHFkmIcoVa74H1bjZnRg-1" source="9v7TePNITTxTFpgdxDVr-0" target="blN-bUHN55MVng5lJSkp-8">
                    <mxGeometry relative="1" as="geometry"/>
                </mxCell>
                <mxCell id="9v7TePNITTxTFpgdxDVr-0" value="Book" style="rounded=1;whiteSpace=wrap;html=1;fillColor=#76608a;fontColor=#ffffff;strokeColor=#432D57;" vertex="1" parent="iHFkmIcoVa74H1bjZnRg-1">
                    <mxGeometry x="360" y="290" width="120" height="60" as="geometry"/>
                </mxCell>
                <mxCell id="blN-bUHN55MVng5lJSkp-1" value="ISBN" style="ellipse;whiteSpace=wrap;html=1;fillColor=#60a917;fontColor=#ffffff;strokeColor=#2D7600;" vertex="1" parent="iHFkmIcoVa74H1bjZnRg-1">
                    <mxGeometry x="40" y="40" width="120" height="80" as="geometry"/>
                </mxCell>
                <mxCell id="blN-bUHN55MVng5lJSkp-2" value="BookTitle" style="ellipse;whiteSpace=wrap;html=1;fillColor=#60a917;fontColor=#ffffff;strokeColor=#2D7600;" vertex="1" parent="iHFkmIcoVa74H1bjZnRg-1">
                    <mxGeometry x="200" y="40" width="120" height="80" as="geometry"/>
                </mxCell>
                <mxCell id="blN-bUHN55MVng5lJSkp-3" value="BookAuthor" style="ellipse;whiteSpace=wrap;html=1;fillColor=#60a917;fontColor=#ffffff;strokeColor=#2D7600;" vertex="1" parent="iHFkmIcoVa74H1bjZnRg-1">
                    <mxGeometry x="360" y="40" width="120" height="80" as="geometry"/>
                </mxCell>
                <mxCell id="blN-bUHN55MVng5lJSkp-4" value="Genre" style="ellipse;whiteSpace=wrap;html=1;fillColor=#60a917;fontColor=#ffffff;strokeColor=#2D7600;" vertex="1" parent="iHFkmIcoVa74H1bjZnRg-1">
                    <mxGeometry x="520" y="40" width="120" height="80" as="geometry"/>
                </mxCell>
                <mxCell id="blN-bUHN55MVng5lJSkp-5" value="Language(s)" style="ellipse;whiteSpace=wrap;html=1;fillColor=#60a917;fontColor=#ffffff;strokeColor=#2D7600;" vertex="1" parent="iHFkmIcoVa74H1bjZnRg-1">
                    <mxGeometry x="680" y="40" width="120" height="80" as="geometry"/>
                </mxCell>
                <mxCell id="blN-bUHN55MVng5lJSkp-6" value="Description" style="ellipse;whiteSpace=wrap;html=1;fillColor=#60a917;fontColor=#ffffff;strokeColor=#2D7600;" vertex="1" parent="iHFkmIcoVa74H1bjZnRg-1">
                    <mxGeometry x="120" y="160" width="120" height="80" as="geometry"/>
                </mxCell>
                <mxCell id="blN-bUHN55MVng5lJSkp-7" value="AquisitionDate" style="ellipse;whiteSpace=wrap;html=1;fillColor=#1ba1e2;fontColor=#ffffff;strokeColor=#006EAF;" vertex="1" parent="iHFkmIcoVa74H1bjZnRg-1">
                    <mxGeometry x="440" y="160" width="120" height="80" as="geometry"/>
                </mxCell>
                <mxCell id="blN-bUHN55MVng5lJSkp-8" value="ReadBy" style="ellipse;whiteSpace=wrap;html=1;fillColor=#1ba1e2;fontColor=#ffffff;strokeColor=#006EAF;" vertex="1" parent="iHFkmIcoVa74H1bjZnRg-1">
                    <mxGeometry x="600" y="160" width="120" height="80" as="geometry"/>
                </mxCell>
                <mxCell id="blN-bUHN55MVng5lJSkp-9" value="Location" style="ellipse;whiteSpace=wrap;html=1;fillColor=#a0522d;fontColor=#ffffff;strokeColor=#6D1F00;" vertex="1" parent="iHFkmIcoVa74H1bjZnRg-1">
                    <mxGeometry x="40" y="280" width="120" height="80" as="geometry"/>
                </mxCell>
                <mxCell id="blN-bUHN55MVng5lJSkp-10" value="LendTo" style="ellipse;whiteSpace=wrap;html=1;fillColor=#e51400;fontColor=#ffffff;strokeColor=#B20000;" vertex="1" parent="iHFkmIcoVa74H1bjZnRg-1">
                    <mxGeometry x="120" y="400" width="120" height="80" as="geometry"/>
                </mxCell>
                <mxCell id="blN-bUHN55MVng5lJSkp-11" value="LendToDate" style="ellipse;whiteSpace=wrap;html=1;fillColor=#e51400;fontColor=#ffffff;strokeColor=#B20000;" vertex="1" parent="iHFkmIcoVa74H1bjZnRg-1">
                    <mxGeometry x="40" y="520" width="120" height="80" as="geometry"/>
                </mxCell>
                <mxCell id="blN-bUHN55MVng5lJSkp-12" value="LendReturnDate" style="ellipse;whiteSpace=wrap;html=1;fillColor=#e51400;fontColor=#ffffff;strokeColor=#B20000;" vertex="1" parent="iHFkmIcoVa74H1bjZnRg-1">
                    <mxGeometry x="200" y="520" width="120" height="80" as="geometry"/>
                </mxCell>
                <mxCell id="blN-bUHN55MVng5lJSkp-13" value="BorrowFrom" style="ellipse;whiteSpace=wrap;html=1;fillColor=#e3c800;fontColor=#000000;strokeColor=#B09500;" vertex="1" parent="iHFkmIcoVa74H1bjZnRg-1">
                    <mxGeometry x="600" y="400" width="120" height="80" as="geometry"/>
                </mxCell>
                <mxCell id="blN-bUHN55MVng5lJSkp-14" value="BorrowDate" style="ellipse;whiteSpace=wrap;html=1;fillColor=#e3c800;fontColor=#000000;strokeColor=#B09500;" vertex="1" parent="iHFkmIcoVa74H1bjZnRg-1">
                    <mxGeometry x="520" y="520" width="120" height="80" as="geometry"/>
                </mxCell>
                <mxCell id="blN-bUHN55MVng5lJSkp-15" value="BorrowReturnDate" style="ellipse;whiteSpace=wrap;html=1;fillColor=#e3c800;fontColor=#000000;strokeColor=#B09500;" vertex="1" parent="iHFkmIcoVa74H1bjZnRg-1">
                    <mxGeometry x="680" y="520" width="120" height="80" as="geometry"/>
                </mxCell>
            </root>
        </mxGraphModel>
    </diagram>
    <diagram id="5fDarjW8UeCLdKeFql9b" name="Seite-3">
        <mxGraphModel dx="990" dy="613" grid="1" gridSize="10" guides="1" tooltips="1" connect="1" arrows="1" fold="1" page="1" pageScale="1" pageWidth="827" pageHeight="1169" math="0" shadow="0">
            <root>
                <mxCell id="9Dz3EY5yVMBfrooaRyyc-0"/>
                <mxCell id="9Dz3EY5yVMBfrooaRyyc-1" parent="9Dz3EY5yVMBfrooaRyyc-0"/>
                <mxCell id="dsCT5hHwHGkAvTOGqPix-0" style="edgeStyle=none;html=1;entryX=1;entryY=0.5;entryDx=0;entryDy=0;endArrow=none;endFill=0;" edge="1" parent="9Dz3EY5yVMBfrooaRyyc-1" source="dsCT5hHwHGkAvTOGqPix-15" target="dsCT5hHwHGkAvTOGqPix-16">
                    <mxGeometry relative="1" as="geometry"/>
                </mxCell>
                <mxCell id="dsCT5hHwHGkAvTOGqPix-1" style="edgeStyle=none;html=1;entryX=1;entryY=1;entryDx=0;entryDy=0;endArrow=none;endFill=0;" edge="1" parent="9Dz3EY5yVMBfrooaRyyc-1" source="dsCT5hHwHGkAvTOGqPix-15" target="dsCT5hHwHGkAvTOGqPix-17">
                    <mxGeometry relative="1" as="geometry"/>
                </mxCell>
                <mxCell id="dsCT5hHwHGkAvTOGqPix-2" style="edgeStyle=none;html=1;entryX=0.5;entryY=1;entryDx=0;entryDy=0;endArrow=none;endFill=0;" edge="1" parent="9Dz3EY5yVMBfrooaRyyc-1" source="dsCT5hHwHGkAvTOGqPix-15" target="dsCT5hHwHGkAvTOGqPix-18">
                    <mxGeometry relative="1" as="geometry"/>
                </mxCell>
                <mxCell id="dsCT5hHwHGkAvTOGqPix-3" style="edgeStyle=none;html=1;exitX=0.623;exitY=0.003;exitDx=0;exitDy=0;entryX=0;entryY=1;entryDx=0;entryDy=0;exitPerimeter=0;endArrow=none;endFill=0;" edge="1" parent="9Dz3EY5yVMBfrooaRyyc-1" source="dsCT5hHwHGkAvTOGqPix-15" target="dsCT5hHwHGkAvTOGqPix-19">
                    <mxGeometry relative="1" as="geometry"/>
                </mxCell>
                <mxCell id="dsCT5hHwHGkAvTOGqPix-4" style="edgeStyle=none;html=1;entryX=0;entryY=1;entryDx=0;entryDy=0;endArrow=none;endFill=0;" edge="1" parent="9Dz3EY5yVMBfrooaRyyc-1" source="dsCT5hHwHGkAvTOGqPix-15" target="dsCT5hHwHGkAvTOGqPix-20">
                    <mxGeometry relative="1" as="geometry"/>
                </mxCell>
                <mxCell id="dsCT5hHwHGkAvTOGqPix-5" style="edgeStyle=none;html=1;entryX=1;entryY=1;entryDx=0;entryDy=0;endArrow=none;endFill=0;" edge="1" parent="9Dz3EY5yVMBfrooaRyyc-1" source="dsCT5hHwHGkAvTOGqPix-15" target="dsCT5hHwHGkAvTOGqPix-21">
                    <mxGeometry relative="1" as="geometry"/>
                </mxCell>
                <mxCell id="dsCT5hHwHGkAvTOGqPix-6" style="edgeStyle=none;html=1;entryX=1;entryY=0.5;entryDx=0;entryDy=0;startArrow=none;endArrow=ERone;endFill=0;" edge="1" parent="9Dz3EY5yVMBfrooaRyyc-1" source="dsCT5hHwHGkAvTOGqPix-31" target="dsCT5hHwHGkAvTOGqPix-34">
                    <mxGeometry relative="1" as="geometry"/>
                </mxCell>
                <mxCell id="dsCT5hHwHGkAvTOGqPix-7" style="edgeStyle=none;html=1;entryX=1;entryY=0;entryDx=0;entryDy=0;startArrow=ERzeroToMany;startFill=0;endArrow=none;endFill=0;exitX=0;exitY=1;exitDx=0;exitDy=0;" edge="1" parent="9Dz3EY5yVMBfrooaRyyc-1" source="dsCT5hHwHGkAvTOGqPix-15" target="dsCT5hHwHGkAvTOGqPix-36">
                    <mxGeometry relative="1" as="geometry">
                        <mxPoint x="222.42640687119297" y="411.7157287525381" as="targetPoint"/>
                    </mxGeometry>
                </mxCell>
                <mxCell id="dsCT5hHwHGkAvTOGqPix-8" style="edgeStyle=none;html=1;entryX=0.5;entryY=0;entryDx=0;entryDy=0;exitX=0;exitY=1;exitDx=0;exitDy=0;endArrow=none;endFill=0;" edge="1" parent="9Dz3EY5yVMBfrooaRyyc-1" source="dsCT5hHwHGkAvTOGqPix-36" target="dsCT5hHwHGkAvTOGqPix-26">
                    <mxGeometry relative="1" as="geometry"/>
                </mxCell>
                <mxCell id="dsCT5hHwHGkAvTOGqPix-9" style="edgeStyle=none;html=1;entryX=0.5;entryY=0;entryDx=0;entryDy=0;exitX=0;exitY=1;exitDx=0;exitDy=0;endArrow=none;endFill=0;" edge="1" parent="9Dz3EY5yVMBfrooaRyyc-1" source="dsCT5hHwHGkAvTOGqPix-36" target="dsCT5hHwHGkAvTOGqPix-27">
                    <mxGeometry relative="1" as="geometry"/>
                </mxCell>
                <mxCell id="dsCT5hHwHGkAvTOGqPix-10" style="edgeStyle=none;html=1;entryX=0;entryY=0;entryDx=0;entryDy=0;startArrow=ERzeroToMany;startFill=0;endArrow=none;endFill=0;exitX=1;exitY=1;exitDx=0;exitDy=0;" edge="1" parent="9Dz3EY5yVMBfrooaRyyc-1" source="dsCT5hHwHGkAvTOGqPix-15" target="dsCT5hHwHGkAvTOGqPix-37">
                    <mxGeometry relative="1" as="geometry">
                        <mxPoint x="617.5735931288073" y="411.7157287525381" as="targetPoint"/>
                    </mxGeometry>
                </mxCell>
                <mxCell id="dsCT5hHwHGkAvTOGqPix-11" style="edgeStyle=none;html=1;entryX=0.5;entryY=0;entryDx=0;entryDy=0;exitX=1;exitY=1;exitDx=0;exitDy=0;endArrow=none;endFill=0;" edge="1" parent="9Dz3EY5yVMBfrooaRyyc-1" source="dsCT5hHwHGkAvTOGqPix-37" target="dsCT5hHwHGkAvTOGqPix-30">
                    <mxGeometry relative="1" as="geometry"/>
                </mxCell>
                <mxCell id="dsCT5hHwHGkAvTOGqPix-12" style="edgeStyle=none;html=1;entryX=0.5;entryY=0;entryDx=0;entryDy=0;exitX=1;exitY=1;exitDx=0;exitDy=0;endArrow=none;endFill=0;" edge="1" parent="9Dz3EY5yVMBfrooaRyyc-1" source="dsCT5hHwHGkAvTOGqPix-37" target="dsCT5hHwHGkAvTOGqPix-29">
                    <mxGeometry relative="1" as="geometry"/>
                </mxCell>
                <mxCell id="dsCT5hHwHGkAvTOGqPix-13" style="edgeStyle=none;html=1;entryX=0.5;entryY=1;entryDx=0;entryDy=0;endArrow=none;endFill=0;" edge="1" parent="9Dz3EY5yVMBfrooaRyyc-1" source="dsCT5hHwHGkAvTOGqPix-15" target="dsCT5hHwHGkAvTOGqPix-22">
                    <mxGeometry relative="1" as="geometry"/>
                </mxCell>
                <mxCell id="dsCT5hHwHGkAvTOGqPix-14" style="edgeStyle=none;html=1;entryX=0;entryY=1;entryDx=0;entryDy=0;endArrow=none;endFill=0;" edge="1" parent="9Dz3EY5yVMBfrooaRyyc-1" source="dsCT5hHwHGkAvTOGqPix-15" target="dsCT5hHwHGkAvTOGqPix-23">
                    <mxGeometry relative="1" as="geometry"/>
                </mxCell>
                <mxCell id="_ejCgc8t8b56tsJY6iha-1" style="edgeStyle=none;html=1;exitX=1;exitY=0.5;exitDx=0;exitDy=0;entryX=0;entryY=0.5;entryDx=0;entryDy=0;startArrow=ERone;startFill=0;endArrow=ERzeroToMany;endFill=0;" edge="1" parent="9Dz3EY5yVMBfrooaRyyc-1" source="dsCT5hHwHGkAvTOGqPix-15" target="_ejCgc8t8b56tsJY6iha-0">
                    <mxGeometry relative="1" as="geometry"/>
                </mxCell>
                <mxCell id="dsCT5hHwHGkAvTOGqPix-15" value="Book" style="rounded=1;whiteSpace=wrap;html=1;fillColor=#76608a;fontColor=#ffffff;strokeColor=#432D57;" vertex="1" parent="9Dz3EY5yVMBfrooaRyyc-1">
                    <mxGeometry x="360" y="290" width="120" height="60" as="geometry"/>
                </mxCell>
                <mxCell id="dsCT5hHwHGkAvTOGqPix-16" value="ISBN" style="ellipse;whiteSpace=wrap;html=1;fillColor=#60a917;fontColor=#ffffff;strokeColor=#2D7600;" vertex="1" parent="9Dz3EY5yVMBfrooaRyyc-1">
                    <mxGeometry x="40" y="40" width="120" height="80" as="geometry"/>
                </mxCell>
                <mxCell id="dsCT5hHwHGkAvTOGqPix-17" value="BookTitle" style="ellipse;whiteSpace=wrap;html=1;fillColor=#60a917;fontColor=#ffffff;strokeColor=#2D7600;" vertex="1" parent="9Dz3EY5yVMBfrooaRyyc-1">
                    <mxGeometry x="200" y="40" width="120" height="80" as="geometry"/>
                </mxCell>
                <mxCell id="dsCT5hHwHGkAvTOGqPix-18" value="BookAuthor" style="ellipse;whiteSpace=wrap;html=1;fillColor=#60a917;fontColor=#ffffff;strokeColor=#2D7600;" vertex="1" parent="9Dz3EY5yVMBfrooaRyyc-1">
                    <mxGeometry x="360" y="40" width="120" height="80" as="geometry"/>
                </mxCell>
                <mxCell id="dsCT5hHwHGkAvTOGqPix-19" value="Genre" style="ellipse;whiteSpace=wrap;html=1;fillColor=#60a917;fontColor=#ffffff;strokeColor=#2D7600;" vertex="1" parent="9Dz3EY5yVMBfrooaRyyc-1">
                    <mxGeometry x="520" y="40" width="120" height="80" as="geometry"/>
                </mxCell>
                <mxCell id="dsCT5hHwHGkAvTOGqPix-20" value="Language(s)" style="ellipse;whiteSpace=wrap;html=1;fillColor=#60a917;fontColor=#ffffff;strokeColor=#2D7600;" vertex="1" parent="9Dz3EY5yVMBfrooaRyyc-1">
                    <mxGeometry x="680" y="40" width="120" height="80" as="geometry"/>
                </mxCell>
                <mxCell id="dsCT5hHwHGkAvTOGqPix-21" value="Description" style="ellipse;whiteSpace=wrap;html=1;fillColor=#60a917;fontColor=#ffffff;strokeColor=#2D7600;" vertex="1" parent="9Dz3EY5yVMBfrooaRyyc-1">
                    <mxGeometry x="120" y="160" width="120" height="80" as="geometry"/>
                </mxCell>
                <mxCell id="dsCT5hHwHGkAvTOGqPix-22" value="AquisitionDate" style="ellipse;whiteSpace=wrap;html=1;fillColor=#1ba1e2;fontColor=#ffffff;strokeColor=#006EAF;" vertex="1" parent="9Dz3EY5yVMBfrooaRyyc-1">
                    <mxGeometry x="440" y="160" width="120" height="80" as="geometry"/>
                </mxCell>
                <mxCell id="dsCT5hHwHGkAvTOGqPix-23" value="ReadBy" style="ellipse;whiteSpace=wrap;html=1;fillColor=#1ba1e2;fontColor=#ffffff;strokeColor=#006EAF;" vertex="1" parent="9Dz3EY5yVMBfrooaRyyc-1">
                    <mxGeometry x="600" y="160" width="120" height="80" as="geometry"/>
                </mxCell>
                <mxCell id="dsCT5hHwHGkAvTOGqPix-26" value="LendToDate" style="ellipse;whiteSpace=wrap;html=1;fillColor=#e51400;fontColor=#ffffff;strokeColor=#B20000;" vertex="1" parent="9Dz3EY5yVMBfrooaRyyc-1">
                    <mxGeometry x="40" y="520" width="120" height="80" as="geometry"/>
                </mxCell>
                <mxCell id="dsCT5hHwHGkAvTOGqPix-27" value="LendReturnDate" style="ellipse;whiteSpace=wrap;html=1;fillColor=#e51400;fontColor=#ffffff;strokeColor=#B20000;" vertex="1" parent="9Dz3EY5yVMBfrooaRyyc-1">
                    <mxGeometry x="200" y="520" width="120" height="80" as="geometry"/>
                </mxCell>
                <mxCell id="dsCT5hHwHGkAvTOGqPix-29" value="BorrowDate" style="ellipse;whiteSpace=wrap;html=1;fillColor=#e3c800;fontColor=#000000;strokeColor=#B09500;" vertex="1" parent="9Dz3EY5yVMBfrooaRyyc-1">
                    <mxGeometry x="520" y="520" width="120" height="80" as="geometry"/>
                </mxCell>
                <mxCell id="dsCT5hHwHGkAvTOGqPix-30" value="BorrowReturnDate" style="ellipse;whiteSpace=wrap;html=1;fillColor=#e3c800;fontColor=#000000;strokeColor=#B09500;" vertex="1" parent="9Dz3EY5yVMBfrooaRyyc-1">
                    <mxGeometry x="680" y="520" width="120" height="80" as="geometry"/>
                </mxCell>
                <mxCell id="dsCT5hHwHGkAvTOGqPix-31" value="StoredAt" style="rhombus;whiteSpace=wrap;html=1;" vertex="1" parent="9Dz3EY5yVMBfrooaRyyc-1">
                    <mxGeometry x="200" y="280" width="120" height="80" as="geometry"/>
                </mxCell>
                <mxCell id="dsCT5hHwHGkAvTOGqPix-32" value="" style="edgeStyle=none;html=1;entryX=1;entryY=0.5;entryDx=0;entryDy=0;endArrow=none;startArrow=ERzeroToMany;startFill=0;" edge="1" parent="9Dz3EY5yVMBfrooaRyyc-1" source="dsCT5hHwHGkAvTOGqPix-15" target="dsCT5hHwHGkAvTOGqPix-31">
                    <mxGeometry relative="1" as="geometry">
                        <mxPoint x="360" y="320" as="sourcePoint"/>
                        <mxPoint x="160" y="320" as="targetPoint"/>
                    </mxGeometry>
                </mxCell>
                <mxCell id="dsCT5hHwHGkAvTOGqPix-34" value="Location" style="rounded=1;whiteSpace=wrap;html=1;fillColor=#a0522d;fontColor=#ffffff;strokeColor=#6D1F00;" vertex="1" parent="9Dz3EY5yVMBfrooaRyyc-1">
                    <mxGeometry x="40" y="290" width="120" height="60" as="geometry"/>
                </mxCell>
                <mxCell id="dsCT5hHwHGkAvTOGqPix-39" style="edgeStyle=none;html=1;exitX=1;exitY=1;exitDx=0;exitDy=0;entryX=0;entryY=0;entryDx=0;entryDy=0;endArrow=ERone;endFill=0;" edge="1" parent="9Dz3EY5yVMBfrooaRyyc-1" source="dsCT5hHwHGkAvTOGqPix-36" target="dsCT5hHwHGkAvTOGqPix-38">
                    <mxGeometry relative="1" as="geometry"/>
                </mxCell>
                <mxCell id="dsCT5hHwHGkAvTOGqPix-36" value="LendTo" style="rhombus;whiteSpace=wrap;html=1;" vertex="1" parent="9Dz3EY5yVMBfrooaRyyc-1">
                    <mxGeometry x="200" y="400" width="120" height="80" as="geometry"/>
                </mxCell>
                <mxCell id="dsCT5hHwHGkAvTOGqPix-40" style="edgeStyle=none;html=1;entryX=1;entryY=0;entryDx=0;entryDy=0;exitX=0;exitY=1;exitDx=0;exitDy=0;endArrow=ERone;endFill=0;" edge="1" parent="9Dz3EY5yVMBfrooaRyyc-1" source="dsCT5hHwHGkAvTOGqPix-37" target="dsCT5hHwHGkAvTOGqPix-38">
                    <mxGeometry relative="1" as="geometry"/>
                </mxCell>
                <mxCell id="dsCT5hHwHGkAvTOGqPix-37" value="BorrowFrom" style="rhombus;whiteSpace=wrap;html=1;" vertex="1" parent="9Dz3EY5yVMBfrooaRyyc-1">
                    <mxGeometry x="520" y="400" width="120" height="80" as="geometry"/>
                </mxCell>
                <mxCell id="_ejCgc8t8b56tsJY6iha-4" style="edgeStyle=none;html=1;entryX=0.5;entryY=0;entryDx=0;entryDy=0;startArrow=ERone;startFill=0;endArrow=ERone;endFill=0;" edge="1" parent="9Dz3EY5yVMBfrooaRyyc-1" source="dsCT5hHwHGkAvTOGqPix-38" target="_ejCgc8t8b56tsJY6iha-2">
                    <mxGeometry relative="1" as="geometry"/>
                </mxCell>
                <mxCell id="_ejCgc8t8b56tsJY6iha-5" style="edgeStyle=none;html=1;exitX=0.75;exitY=1;exitDx=0;exitDy=0;entryX=0.5;entryY=0;entryDx=0;entryDy=0;startArrow=ERone;startFill=0;endArrow=ERzeroToMany;endFill=0;" edge="1" parent="9Dz3EY5yVMBfrooaRyyc-1" source="dsCT5hHwHGkAvTOGqPix-38" target="_ejCgc8t8b56tsJY6iha-3">
                    <mxGeometry relative="1" as="geometry"/>
                </mxCell>
                <mxCell id="dsCT5hHwHGkAvTOGqPix-38" value="Friend" style="rounded=1;whiteSpace=wrap;html=1;fillColor=#fa6800;fontColor=#000000;strokeColor=#C73500;" vertex="1" parent="9Dz3EY5yVMBfrooaRyyc-1">
                    <mxGeometry x="360" y="530" width="120" height="60" as="geometry"/>
                </mxCell>
                <mxCell id="_ejCgc8t8b56tsJY6iha-0" value="CrossReferences" style="ellipse;whiteSpace=wrap;html=1;fillColor=#1ba1e2;fontColor=#ffffff;strokeColor=#006EAF;" vertex="1" parent="9Dz3EY5yVMBfrooaRyyc-1">
                    <mxGeometry x="600" y="280" width="120" height="80" as="geometry"/>
                </mxCell>
                <mxCell id="_ejCgc8t8b56tsJY6iha-2" value="FriendName" style="ellipse;whiteSpace=wrap;html=1;fillColor=#fa6800;fontColor=#000000;strokeColor=#C73500;" vertex="1" parent="9Dz3EY5yVMBfrooaRyyc-1">
                    <mxGeometry x="280" y="640" width="120" height="80" as="geometry"/>
                </mxCell>
                <mxCell id="_ejCgc8t8b56tsJY6iha-3" value="FriendPhone" style="ellipse;whiteSpace=wrap;html=1;fillColor=#fa6800;fontColor=#000000;strokeColor=#C73500;" vertex="1" parent="9Dz3EY5yVMBfrooaRyyc-1">
                    <mxGeometry x="440" y="640" width="120" height="80" as="geometry"/>
                </mxCell>
            </root>
        </mxGraphModel>
    </diagram>
    <diagram id="_gpYqJwwE77XNgYC7BQx" name="Seite-4">
        <mxGraphModel dx="990" dy="613" grid="1" gridSize="10" guides="1" tooltips="1" connect="1" arrows="1" fold="1" page="1" pageScale="1" pageWidth="827" pageHeight="1169" math="0" shadow="0">
            <root>
                <mxCell id="HHOLcav9CZg12y6KOYAi-0"/>
                <mxCell id="HHOLcav9CZg12y6KOYAi-1" parent="HHOLcav9CZg12y6KOYAi-0"/>
                <mxCell id="fp8uYtcWNrkcyleGdZJp-0" value="Book" style="swimlane;fontStyle=0;childLayout=stackLayout;horizontal=1;startSize=30;horizontalStack=0;resizeParent=1;resizeParentMax=0;resizeLast=0;collapsible=1;marginBottom=0;" vertex="1" parent="HHOLcav9CZg12y6KOYAi-1">
                    <mxGeometry x="120" y="160" width="140" height="240" as="geometry"/>
                </mxCell>
                <mxCell id="fp8uYtcWNrkcyleGdZJp-1" value="pk-ISBN" style="text;strokeColor=none;fillColor=none;align=left;verticalAlign=middle;spacingLeft=4;spacingRight=4;overflow=hidden;points=[[0,0.5],[1,0.5]];portConstraint=eastwest;rotatable=0;" vertex="1" parent="fp8uYtcWNrkcyleGdZJp-0">
                    <mxGeometry y="30" width="140" height="30" as="geometry"/>
                </mxCell>
                <mxCell id="fp8uYtcWNrkcyleGdZJp-2" value="BookTitle" style="text;strokeColor=none;fillColor=none;align=left;verticalAlign=middle;spacingLeft=4;spacingRight=4;overflow=hidden;points=[[0,0.5],[1,0.5]];portConstraint=eastwest;rotatable=0;" vertex="1" parent="fp8uYtcWNrkcyleGdZJp-0">
                    <mxGeometry y="60" width="140" height="30" as="geometry"/>
                </mxCell>
                <mxCell id="fp8uYtcWNrkcyleGdZJp-3" value="BookAuthor" style="text;strokeColor=none;fillColor=none;align=left;verticalAlign=middle;spacingLeft=4;spacingRight=4;overflow=hidden;points=[[0,0.5],[1,0.5]];portConstraint=eastwest;rotatable=0;" vertex="1" parent="fp8uYtcWNrkcyleGdZJp-0">
                    <mxGeometry y="90" width="140" height="30" as="geometry"/>
                </mxCell>
                <mxCell id="tM1lO4gBVW-LUBSZCIAV-6" value="Genre" style="text;strokeColor=none;fillColor=none;align=left;verticalAlign=middle;spacingLeft=4;spacingRight=4;overflow=hidden;points=[[0,0.5],[1,0.5]];portConstraint=eastwest;rotatable=0;" vertex="1" parent="fp8uYtcWNrkcyleGdZJp-0">
                    <mxGeometry y="120" width="140" height="30" as="geometry"/>
                </mxCell>
                <mxCell id="tM1lO4gBVW-LUBSZCIAV-5" value="Language(s)" style="text;strokeColor=none;fillColor=none;align=left;verticalAlign=middle;spacingLeft=4;spacingRight=4;overflow=hidden;points=[[0,0.5],[1,0.5]];portConstraint=eastwest;rotatable=0;" vertex="1" parent="fp8uYtcWNrkcyleGdZJp-0">
                    <mxGeometry y="150" width="140" height="30" as="geometry"/>
                </mxCell>
                <mxCell id="keX6nu5e2FjrNCHT9LQu-0" value="Description" style="text;strokeColor=none;fillColor=none;align=left;verticalAlign=middle;spacingLeft=4;spacingRight=4;overflow=hidden;points=[[0,0.5],[1,0.5]];portConstraint=eastwest;rotatable=0;" vertex="1" parent="fp8uYtcWNrkcyleGdZJp-0">
                    <mxGeometry y="180" width="140" height="30" as="geometry"/>
                </mxCell>
                <mxCell id="WQyBTYGgIUEBcJMC6kuj-0" value="Location" style="text;strokeColor=none;fillColor=none;align=left;verticalAlign=middle;spacingLeft=4;spacingRight=4;overflow=hidden;points=[[0,0.5],[1,0.5]];portConstraint=eastwest;rotatable=0;" vertex="1" parent="fp8uYtcWNrkcyleGdZJp-0">
                    <mxGeometry y="210" width="140" height="30" as="geometry"/>
                </mxCell>
                <mxCell id="th-qrO6YD8JShmVJ3vhE-0" value="Friend" style="swimlane;fontStyle=0;childLayout=stackLayout;horizontal=1;startSize=30;horizontalStack=0;resizeParent=1;resizeParentMax=0;resizeLast=0;collapsible=1;marginBottom=0;" vertex="1" parent="HHOLcav9CZg12y6KOYAi-1">
                    <mxGeometry x="320" y="160" width="140" height="90" as="geometry"/>
                </mxCell>
                <mxCell id="th-qrO6YD8JShmVJ3vhE-1" value="Name" style="text;strokeColor=none;fillColor=none;align=left;verticalAlign=middle;spacingLeft=4;spacingRight=4;overflow=hidden;points=[[0,0.5],[1,0.5]];portConstraint=eastwest;rotatable=0;" vertex="1" parent="th-qrO6YD8JShmVJ3vhE-0">
                    <mxGeometry y="30" width="140" height="30" as="geometry"/>
                </mxCell>
                <mxCell id="th-qrO6YD8JShmVJ3vhE-2" value="Phone" style="text;strokeColor=none;fillColor=none;align=left;verticalAlign=middle;spacingLeft=4;spacingRight=4;overflow=hidden;points=[[0,0.5],[1,0.5]];portConstraint=eastwest;rotatable=0;" vertex="1" parent="th-qrO6YD8JShmVJ3vhE-0">
                    <mxGeometry y="60" width="140" height="30" as="geometry"/>
                </mxCell>
                <mxCell id="-mMTKe-rKAS4nr7zUnk0-0" value="Lend" style="swimlane;fontStyle=0;childLayout=stackLayout;horizontal=1;startSize=30;horizontalStack=0;resizeParent=1;resizeParentMax=0;resizeLast=0;collapsible=1;marginBottom=0;" vertex="1" parent="HHOLcav9CZg12y6KOYAi-1">
                    <mxGeometry x="320" y="320" width="140" height="120" as="geometry"/>
                </mxCell>
                <mxCell id="-mMTKe-rKAS4nr7zUnk0-1" value="pk-LendNr" style="text;strokeColor=none;fillColor=none;align=left;verticalAlign=middle;spacingLeft=4;spacingRight=4;overflow=hidden;points=[[0,0.5],[1,0.5]];portConstraint=eastwest;rotatable=0;" vertex="1" parent="-mMTKe-rKAS4nr7zUnk0-0">
                    <mxGeometry y="30" width="140" height="30" as="geometry"/>
                </mxCell>
                <mxCell id="-mMTKe-rKAS4nr7zUnk0-6" value="List Item" style="text;strokeColor=none;fillColor=none;align=left;verticalAlign=middle;spacingLeft=4;spacingRight=4;overflow=hidden;points=[[0,0.5],[1,0.5]];portConstraint=eastwest;rotatable=0;" vertex="1" parent="-mMTKe-rKAS4nr7zUnk0-0">
                    <mxGeometry y="60" width="140" height="30" as="geometry"/>
                </mxCell>
                <mxCell id="-mMTKe-rKAS4nr7zUnk0-2" value="fk-ISBN" style="text;strokeColor=none;fillColor=none;align=left;verticalAlign=middle;spacingLeft=4;spacingRight=4;overflow=hidden;points=[[0,0.5],[1,0.5]];portConstraint=eastwest;rotatable=0;" vertex="1" parent="-mMTKe-rKAS4nr7zUnk0-0">
                    <mxGeometry y="90" width="140" height="30" as="geometry"/>
                </mxCell>
                <mxCell id="-mMTKe-rKAS4nr7zUnk0-3" value="Borrow" style="swimlane;fontStyle=0;childLayout=stackLayout;horizontal=1;startSize=30;horizontalStack=0;resizeParent=1;resizeParentMax=0;resizeLast=0;collapsible=1;marginBottom=0;" vertex="1" parent="HHOLcav9CZg12y6KOYAi-1">
                    <mxGeometry x="520" y="320" width="140" height="120" as="geometry"/>
                </mxCell>
                <mxCell id="-mMTKe-rKAS4nr7zUnk0-4" value="pk-BorrowNr" style="text;strokeColor=none;fillColor=none;align=left;verticalAlign=middle;spacingLeft=4;spacingRight=4;overflow=hidden;points=[[0,0.5],[1,0.5]];portConstraint=eastwest;rotatable=0;" vertex="1" parent="-mMTKe-rKAS4nr7zUnk0-3">
                    <mxGeometry y="30" width="140" height="30" as="geometry"/>
                </mxCell>
                <mxCell id="-mMTKe-rKAS4nr7zUnk0-7" value="List Item" style="text;strokeColor=none;fillColor=none;align=left;verticalAlign=middle;spacingLeft=4;spacingRight=4;overflow=hidden;points=[[0,0.5],[1,0.5]];portConstraint=eastwest;rotatable=0;" vertex="1" parent="-mMTKe-rKAS4nr7zUnk0-3">
                    <mxGeometry y="60" width="140" height="30" as="geometry"/>
                </mxCell>
                <mxCell id="-mMTKe-rKAS4nr7zUnk0-5" value="fk-ISBN" style="text;strokeColor=none;fillColor=none;align=left;verticalAlign=middle;spacingLeft=4;spacingRight=4;overflow=hidden;points=[[0,0.5],[1,0.5]];portConstraint=eastwest;rotatable=0;" vertex="1" parent="-mMTKe-rKAS4nr7zUnk0-3">
                    <mxGeometry y="90" width="140" height="30" as="geometry"/>
                </mxCell>
            </root>
        </mxGraphModel>
    </diagram>
</mxfile>